<?xml version="1.0" encoding="utf-8"?>
<!-- Generator: Adobe Illustrator 16.0.0, SVG Export Plug-In . SVG Version: 6.00 Build 0)  -->
<!DOCTYPE svg PUBLIC "-//W3C//DTD SVG 1.1//EN" "http://www.w3.org/Graphics/SVG/1.1/DTD/svg11.dtd">
<svg version="1.1" id="Layer_1" xmlns="http://www.w3.org/2000/svg" xmlns:xlink="http://www.w3.org/1999/xlink" x="0px" y="0px"
	 width="100px" height="100px" viewBox="0 0 100 100" enable-background="new 0 0 100 100" xml:space="preserve">
<path fill="#22B24C" d="M99.085,80.393c-0.006-0.149-0.017-0.283-0.05-0.428c-0.021-0.156-0.062-0.29-0.161-0.605l-0.095-0.291
	c-0.045-0.133-0.111-0.243-0.268-0.545l-0.156-0.267c-0.082-0.146-0.188-0.257-0.395-0.522l-0.193-0.223
	c-0.15-0.156-0.33-0.307-0.652-0.557l-43.73-34.404l-0.005-1.88c0.089-0.129,0.245-0.34,0.429-0.513l5.424-5.435
	c2.375-2.375,2.408-5.067,2.365-5.796V24.49c0.01-0.396,0.01-4-2.844-6.909c-2.092-2.131-5.033-3.204-8.756-3.204
	c-3.722,0-6.67,1.073-8.756,3.204c-2.859,2.909-2.854,6.503-2.837,6.909c0.022,1.869,1.547,3.349,3.466,3.349
	c0.912-0.012,1.757-0.378,2.397-1.034c0.634-0.651,0.979-1.53,0.968-2.376c0-0.128,0.083-1.252,0.873-2.053
	c0.762-0.773,2.064-1.168,3.889-1.168c4.277,0,4.762,2.259,4.773,3.215v4.787c0,0.017-0.012,0.339-0.361,0.689l-5.363,5.363
	c-0.584,0.545-2.47,2.531-2.47,5.04v2.28L2.751,77.064c-0.184,0.141-0.367,0.291-0.534,0.469C2.15,77.6,2.1,77.673,2.011,77.777
	c-0.128,0.156-0.261,0.317-0.378,0.484c-0.044,0.088-0.089,0.161-0.156,0.295c-0.094,0.172-0.184,0.334-0.255,0.512l-0.14,0.449
	c-0.055,0.156-0.094,0.297-0.122,0.446c-0.023,0.134-0.034,0.261-0.062,0.572c-0.017,0.104-0.022,0.2-0.022,0.351
	c0.005,0.213,0.028,0.434,0.061,0.646l0.045,0.277c0.023,0.14,0.067,0.283,0.178,0.635l0.078,0.232c0,0,0.1,0.2,0.167,0.317
	c0.094,0.194,0.189,0.378,0.333,0.59c0.061,0.089,0.127,0.155,0.195,0.233c0.127,0.154,0.255,0.328,0.378,0.429
	c0.094,0.094,0.195,0.178,0.4,0.333c0.105,0.095,0.211,0.178,0.306,0.245c0.117,0.077,0.245,0.139,0.512,0.282
	c0.112,0.058,0.222,0.117,0.351,0.168c0.123,0.039,0.245,0.09,0.512,0.162c0.127,0.037,0.255,0.07,0.367,0.088
	c0.2,0.045,0.4,0.066,0.65,0.078l0.268,0.018h88.685l0.267-0.018c0.206-0.012,0.412-0.033,0.601-0.078
	c0.117-0.018,0.246-0.045,0.513-0.127c0.128-0.033,0.25-0.084,0.399-0.129c0.112-0.05,0.229-0.104,0.49-0.25
	c0.116-0.062,0.229-0.117,0.333-0.184c0.127-0.084,0.257-0.195,0.401-0.301c0.115-0.1,0.222-0.18,0.294-0.271
	c0.161-0.129,0.295-0.296,0.45-0.479l0.162-0.229c0.145-0.193,0.263-0.404,0.467-0.822c0.062-0.146,0.105-0.289,0.195-0.59
	l0.09-0.312c0.017-0.097,0.027-0.195,0.056-0.446c0.022-0.167,0.044-0.333,0.044-0.533C99.124,80.749,99.118,80.66,99.085,80.393z
	 M13.994,78.061l36.009-28.642L86.006,78.07L13.994,78.061z"/>
</svg>
