<?xml version="1.0" encoding="utf-8"?>
<!-- Generator: Adobe Illustrator 16.0.0, SVG Export Plug-In . SVG Version: 6.00 Build 0)  -->
<!DOCTYPE svg PUBLIC "-//W3C//DTD SVG 1.1//EN" "http://www.w3.org/Graphics/SVG/1.1/DTD/svg11.dtd">
<svg version="1.1" id="Layer_1" xmlns="http://www.w3.org/2000/svg" xmlns:xlink="http://www.w3.org/1999/xlink" x="0px" y="0px"
	 width="100px" height="100px" viewBox="0 0 100 100" enable-background="new 0 0 100 100" xml:space="preserve">
<g id="Layer_1_2_">
	<g id="Layer_1_1_">
	</g>
	<g id="BACKGROUND">
	</g>
</g>
<g id="WATER">
	<g>
		
			<rect x="18.438" y="34.267" transform="matrix(-0.8655 -0.5009 0.5009 -0.8655 25.946 78.0005)" fill="#22B24C" width="10.015" height="2.5"/>
	</g>
	<g>
		
			<rect x="29.532" y="23.189" transform="matrix(-0.4994 -0.8663 0.8663 -0.4994 30.6149 66.5675)" fill="#22B24C" width="10.013" height="2.5"/>
	</g>
	<path fill="#22B24C" d="M49.672,7.636C25.928,7.636,6.61,26.953,6.61,50.698s19.317,43.062,43.062,43.062
		c23.746,0,43.064-19.317,43.064-43.062C92.736,26.954,73.418,7.636,49.672,7.636z M79.641,31.977l1.248,2.166l-8.675,5.003
		l-1.249-2.166L79.641,31.977z M48.422,13.668v35.78h-35.78C13.292,30.006,28.98,14.317,48.422,13.668z M19.403,69.253l-1.243-2.17
		l8.693-4.979l1.243,2.17L19.403,69.253z M33.033,81.869l-2.163-1.254l5.025-8.662l2.163,1.254L33.033,81.869z M50.922,86.011h-2.5
		V75.996h2.5V86.011z M66.225,81.916l-5-8.677l2.166-1.248l5,8.677L66.225,81.916z M63.393,29.408l-2.166-1.249l5.004-8.676
		l2.164,1.249L63.393,29.408z M79.621,69.45l-8.672-5.011l1.251-2.166l8.672,5.012L79.621,69.45z M74.971,51.948v-2.5h10.014v2.5
		H74.971z"/>
</g>
</svg>
