<?xml version="1.0" encoding="utf-8"?>
<!-- Generator: Adobe Illustrator 16.0.0, SVG Export Plug-In . SVG Version: 6.00 Build 0)  -->
<!DOCTYPE svg PUBLIC "-//W3C//DTD SVG 1.1//EN" "http://www.w3.org/Graphics/SVG/1.1/DTD/svg11.dtd">
<svg version="1.1" id="Your_Icon" xmlns="http://www.w3.org/2000/svg" xmlns:xlink="http://www.w3.org/1999/xlink" x="0px" y="0px"
	 width="100px" height="100px" viewBox="0 0 100 100" enable-background="new 0 0 100 100" xml:space="preserve">
<path fill="#22B24C" d="M49.68,19.77c0.003,0.15,0.012,0.3,0.012,0.451c0,11.033-17.276,31.601-19.247,33.91l-2.319,2.719
	l-2.32-2.719c-1.181-1.386-7.872-9.345-13.037-17.873V97H22.85l41.378-77.23H49.68z"/>
<polygon fill="#22B24C" points="38.222,97 90,97 90,89.73 52.796,69.799 "/>
<polygon fill="#22B24C" points="79.6,19.77 59.195,57.855 90,74.359 90,19.77 "/>
<path fill="#22B24C" d="M28.126,52.152c0,0,18.517-21.704,18.517-31.931S38.353,1.704,28.126,1.704S9.608,9.995,9.608,20.221
	C9.608,30.448,28.126,52.152,28.126,52.152z M28.125,8.93c3.991,0,7.227,3.235,7.227,7.226c0,3.992-3.235,7.227-7.227,7.227
	s-7.227-3.235-7.227-7.227C20.899,12.166,24.134,8.93,28.125,8.93z"/>
</svg>
